/* XPM */
static char * ArmyOps_xpm[] = {
"52 48 257 2",
"  	c None",
". 	c #000000",
"+ 	c #FFFFFF",
"@ 	c #8B1428",
"# 	c #707070",
"$ 	c #202241",
"% 	c #ACA3A4",
"& 	c #8C081D",
"* 	c #910D21",
"= 	c #911325",
"- 	c #8C1427",
"; 	c #8F1529",
"> 	c #ADA6A7",
", 	c #8A0C22",
"' 	c #8D0F25",
") 	c #8A1125",
"! 	c #971329",
"~ 	c #8E1228",
"{ 	c #8B1327",
"] 	c #92142A",
"^ 	c #8E162C",
"/ 	c #90182E",
"( 	c #8F1A2F",
"_ 	c #963043",
": 	c #862D3D",
"< 	c #9B4454",
"[ 	c #A05E6A",
"} 	c #A47981",
"| 	c #A88C91",
"1 	c #3D0712",
"2 	c #770E23",
"3 	c #610C1C",
"4 	c #861127",
"5 	c #24050B",
"6 	c #88162D",
"7 	c #932338",
"8 	c #B8B3B4",
"9 	c #140206",
"0 	c #7F4B56",
"a 	c #AC9B9F",
"b 	c #6F6B6C",
"c 	c #070002",
"d 	c #554F51",
"e 	c #681E3D",
"f 	c #561A35",
"g 	c #050304",
"h 	c #AEACAD",
"i 	c #ADABAC",
"j 	c #B5B0B3",
"k 	c #726F71",
"l 	c #32162B",
"m 	c #7D5E78",
"n 	c #020102",
"o 	c #B8B6B8",
"p 	c #AEACAE",
"q 	c #767576",
"r 	c #727172",
"s 	c #5C5B5C",
"t 	c #B6B5B6",
"u 	c #100C18",
"v 	c #AEADB1",
"w 	c #2E254B",
"x 	c #31284F",
"y 	c #020205",
"z 	c #010102",
"A 	c #0B0B0C",
"B 	c #B3B3B7",
"C 	c #ACACAE",
"D 	c #ABABAD",
"E 	c #6D6D6E",
"F 	c #5F5F60",
"G 	c #99999A",
"H 	c #222344",
"I 	c #212241",
"J 	c #191B3C",
"K 	c #1C1E3E",
"L 	c #1F2140",
"M 	c #212342",
"N 	c #1B1E3F",
"O 	c #212445",
"P 	c #4E4F5E",
"Q 	c #1D203F",
"R 	c #1E2140",
"S 	c #212443",
"T 	c #1E2344",
"U 	c #212648",
"V 	c #262A4A",
"W 	c #292D4D",
"X 	c #393C54",
"Y 	c #4F5160",
"Z 	c #505158",
"` 	c #2C3150",
" .	c #2F3453",
"..	c #7C7E8B",
"+.	c #1D2445",
"@.	c #161B33",
"#.	c #393F5D",
"$.	c #434862",
"%.	c #1E2955",
"&.	c #090C19",
"*.	c #070912",
"=.	c #5A5F74",
"-.	c #6B6F81",
";.	c #9FA0A4",
">.	c #111938",
",.	c #0F1426",
"'.	c #0D1120",
").	c #4B526D",
"!.	c #333745",
"~.	c #63687B",
"{.	c #0A0F1F",
"].	c #707586",
"^.	c #182343",
"/.	c #8C8F98",
"(.	c #0C162B",
"_.	c #04070D",
":.	c #030509",
"<.	c #657EAF",
"[.	c #A3A5A9",
"}.	c #11274C",
"|.	c #9A9DA2",
"1.	c #A6A8AA",
"2.	c #010202",
"3.	c #6E7575",
"4.	c #727575",
"5.	c #717272",
"6.	c #B5B6B6",
"7.	c #B1B2B2",
"8.	c #939494",
"9.	c #8B8C8C",
"0.	c #ACB6B4",
"a.	c #ACB1B0",
"b.	c #AEBEBA",
"c.	c #6F7372",
"d.	c #AEB5B3",
"e.	c #AAADAC",
"f.	c #6A6F6D",
"g.	c #515352",
"h.	c #6D6F6E",
"i.	c #6C6E6D",
"j.	c #ADAFAE",
"k.	c #3D3E3D",
"l.	c #535453",
"m.	c #ACAEAC",
"n.	c #757675",
"o.	c #6F706F",
"p.	c #B6B7B6",
"q.	c #B3B5B2",
"r.	c #0E0F0D",
"s.	c #3B3D39",
"t.	c #747672",
"u.	c #B7B8B6",
"v.	c #ABACAA",
"w.	c #484946",
"x.	c #020201",
"y.	c #BCBCB2",
"z.	c #525250",
"A.	c #B4B4B2",
"B.	c #AFAFAD",
"C.	c #B6B6B5",
"D.	c #B1B0AA",
"E.	c #B4B3B0",
"F.	c #B2B1AF",
"G.	c #B7B5B2",
"H.	c #737271",
"I.	c #ADACAB",
"J.	c #060403",
"K.	c #6E6C6B",
"L.	c #767372",
"M.	c #020000",
"N.	c #010000",
"O.	c #ADABAB",
"P.	c #767575",
"Q.	c #706F6F",
"R.	c #585757",
"S.	c #ADACAC",
"T.	c #FEFEFE",
"U.	c #FBFBFB",
"V.	c #F8F8F8",
"W.	c #F3F3F3",
"X.	c #EAEAEA",
"Y.	c #E2E2E2",
"Z.	c #D9D9D9",
"`.	c #D0D0D0",
" +	c #C7C7C7",
".+	c #BFBFBF",
"++	c #BBBBBB",
"@+	c #B8B8B8",
"#+	c #B5B5B5",
"$+	c #B4B4B4",
"%+	c #B3B3B3",
"&+	c #B0B0B0",
"*+	c #AEAEAE",
"=+	c #ABABAB",
"-+	c #A9A9A9",
";+	c #A6A6A6",
">+	c #A4A4A4",
",+	c #A1A1A1",
"'+	c #9E9E9E",
")+	c #8F8F8F",
"!+	c #878787",
"~+	c #818181",
"{+	c #7B7B7B",
"]+	c #787878",
"^+	c #777777",
"/+	c #767676",
"(+	c #757575",
"_+	c #737373",
":+	c #727272",
"<+	c #717171",
"[+	c #707070",
"}+	c #6E6E6E",
"|+	c #6C6C6C",
"1+	c #6B6B6B",
"2+	c #696969",
"3+	c #686868",
"4+	c #666666",
"5+	c #646464",
"6+	c #636363",
"7+	c #616161",
"8+	c #5A5A5A",
"9+	c #565656",
"0+	c #545454",
"a+	c #535353",
"b+	c #505050",
"c+	c #4E4E4E",
"d+	c #4B4B4B",
"e+	c #494949",
"f+	c #464646",
"g+	c #434343",
"h+	c #404040",
"i+	c #3B3B3B",
"j+	c #3A3A3A",
"k+	c #373737",
"l+	c #333333",
"m+	c #303030",
"n+	c #2E2E2E",
"o+	c #2A2A2A",
"p+	c #252525",
"q+	c #1F1F1F",
"r+	c #1C1C1C",
"s+	c #1A1A1A",
"t+	c #181818",
"u+	c #151515",
"v+	c #111111",
"w+	c #101010",
"x+	c #0F0F0F",
"y+	c #0E0E0E",
"z+	c #0D0D0D",
"A+	c #0C0C0C",
"B+	c #0B0B0B",
"C+	c #090909",
"D+	c #070707",
"E+	c #060606",
"F+	c #040404",
"G+	c #020202",
"H+	c #010101",
". . . . . . . . . . . . . . . . . . . . . . . . . . . . . . . . . . . . . . . . . . . . . . . . . . . . ",
". . . . . . . . . . . . . . . . . . . . . . . . . . . . . . . . . . . . . . . . . . . . . . . . . . . . ",
". . . # # # # # # # # # # # # # # # # # # # # # # # # # # # # # # # # # # # # # # # # # # # # # # . . . ",
". . # # . . . . . . . . . . . . . . . . . . . . . . . . . . . . . . . . . . . . . . . . . . . . # # . . ",
". . # . . . . . v+. . v+. . . F+w+. v+v+v+v+. v+v+v+. . v+H+. v+v+v+H+. . v+. . v+H+. v+v+E+. . E+# . . ",
". . # $ $ $ $ $ $ $ $ $ $ $ $ $ $ $ $ $ $ $ $ $ $ $ @ @ @ @ @ @ @ @ @ @ @ @ @ @ @ @ @ @ @ @ @ @ @ # . . ",
". . # $ $ $ $ $ $ $ $ $ $ $ $ $ $ $ $ $ $ $ $ $ $ $ @ @ @ @ @ @ @ @ @ @ @ @ @ @ @ @ @ @ @ @ @ @ @ # . . ",
". . # $ $ $ $ $ $ $ $ $ $ $ $ $ $ $ $ $ $ $ $ $ $ $ @ @ @ @ @ @ @ @ @ @ @ @ @ @ @ @ @ @ @ @ @ @ @ # . . ",
". . # $ $ $ $ $ $ $ $ $ $ $ $ $ $ $ $ $ $ $ $ $ $ $ @ @ @ @ @ @ @ @ @ @ @ @ @ @ @ @ @ @ @ @ @ @ @ # . . ",
". . # $ $ $ $ $ $ $ $ $ $ $ $ $ $ $ $ $ $ $ $ $ $ $ @ @ @ @ @ @ @ @ @ @ @ @ @ @ @ @ @ @ @ @ @ @ @ # . . ",
". . # $ $ $ $ $ $ $ $ $ $ $ $ $ $ $ $ $ $ $ $ $ $ $ @ @ @ @ @ @ @ @ @ @ @ @ @ @ @ @ @ @ @ @ @ @ @ # . . ",
". . # $ $ $ $ $ $ $ $ $ $ $ $ $ $ $ $ $ $ $ $ $ $ $ @ @ @ @ @ @ @ @ @ @ @ @ @ @ @ @ @ @ @ @ @ @ @ # . . ",
". . # $ $ $ $ $ $ $ $ $ $ $ $ $ $ $ $ $ $ $ $ $ $ $ @ @ @ @ @ @ @ @ @ @ @ @ @ @ @ @ @ @ @ @ @ @ @ # . . ",
". . # $ $ $ $ $ $ $ $ $ $ $ $ $ $ $ $ $ $ $ $ $ $ $ @ @ @ @ @ @ @ @ @ @ @ @ @ @ @ @ @ @ @ @ @ @ @ # . . ",
". . # $ $ $ $ $ $ $ $ $ $ $ $ $ $ $ $ $ $ $ $ $ $ $ @ @ @ @ @ @ @ @ @ @ @ @ @ @ @ @ @ @ @ @ @ @ @ # . . ",
". . # $ $ $ $ $ $ $ $ + + + + + $ $ $ $ $ $ $ $ $ $ @ @ @ @ @ @ @ @ @ @ + + + + + @ @ @ @ @ @ @ @ # . . ",
". . # $ $ $ $ $ $ $ $ + . . . + $ $ $ $ $ $ $ $ $ $ @ @ @ @ @ @ @ @ @ @ + . . . + @ @ @ @ @ @ @ @ # . . ",
". . # $ $ $ $ $ $ $ + . . . . . + $ $ $ $ $ $ $ $ $ @ @ @ @ @ @ @ @ @ + . . . . . + @ @ @ @ @ @ @ # . . ",
". . # $ $ $ $ $ $ $ + . . . . . + $ $ $ $ $ $ $ $ + + @ @ @ @ @ @ @ @ + . . . . . + @ @ @ @ @ @ @ # . . ",
". . # $ $ $ $ $ $ + . . . + H+. . + $ $ $ $ $ $ . + + @ @ @ @ @ @ @ + . . . + H+. . + @ @ @ @ @ @ # . . ",
". . # $ $ $ $ $ $ + . . . + v+. . + $ $ $ $ $ $ . + + N.@ @ @ @ @ @ + . . . + v+. . + @ @ @ @ @ @ # . . ",
". . # $ $ $ $ $ + . . . + $ + H+. . + H++ + + + + + + + + + + + @ + . . . + $ + H+. . + @ @ @ @ @ # . . ",
". . # $ $ $ $ + . . . . + $ + C+. . . + y X.+ + + + + + + + C+@ + . . . . + $ + C+. . . + @ @ @ @ # . . ",
". . # @ @ @ @ + . . . + + + + + H+. . + @ @ . T.+ + + + + n $ $ + . . . + + + + + H+. . + $ $ $ $ # . . ",
". . # @ @ @ + . . . . . . . . . . . . . + @ @ @ + + + + . $ $ + . . . . . . . . . . . . . + $ $ $ # . . ",
". . # @ @ @ + . . . . . . . . . . . . . + @ N.+ + + + + + $ $ + . . . . . . . . . . . . . + $ $ $ # . . ",
". . # @ @ + . . . . . . . . . . . . . . . + . + + . H++ + $ + . . . . . . . . . . . . . . . + $ $ # . . ",
". . # @ @ + . . . + + + + + + + + + . . . + @ + 5 @ $ M.+ $ + . . . + + + + + + + + + . . . + $ $ # . . ",
". . # @ + . . . + @ @ @ @ @ @ @ @ @ + . . . + @ @ @ $ $ $ + . . . + $ $ $ $ $ $ $ $ $ + . . . + $ # . . ",
". . # @ + . . H++ @ @ @ @ @ @ @ @ @ + . . . + @ @ @ $ $ $ + . . H++ $ $ $ $ $ $ $ $ $ + . . . + $ # . . ",
". . # @ + + + + @ @ @ @ @ @ @ @ @ @ @ + + + + @ @ @ $ $ $ + + + + $ $ $ $ $ $ $ $ $ $ $ + + + + $ # . . ",
". . # @ @ @ @ @ @ @ @ @ @ @ @ @ @ @ @ @ @ @ @ @ @ @ $ $ $ $ $ $ $ $ $ $ $ $ $ $ $ $ $ $ $ $ $ $ $ # . . ",
". . # @ @ @ @ @ @ @ @ @ @ @ @ @ @ @ @ @ @ @ @ @ @ @ $ $ $ $ $ $ $ $ $ $ $ $ $ $ $ $ $ $ $ $ $ $ $ # . . ",
". . # @ @ @ @ @ @ @ @ @ @ @ @ @ @ @ @ @ @ @ @ @ @ @ $ $ $ $ $ $ $ $ $ $ $ $ $ $ $ $ $ $ $ $ $ $ $ # . . ",
". . # @ @ @ @ @ @ @ @ @ @ @ @ @ @ @ @ @ @ @ @ @ @ @ $ $ $ $ $ $ $ $ $ $ $ $ $ $ $ $ $ $ $ $ $ $ $ # . . ",
". . # @ @ @ @ @ @ @ @ @ @ @ @ @ @ @ @ @ @ @ @ @ @ @ $ $ $ $ $ $ $ $ $ $ $ $ $ $ $ $ $ $ $ $ $ $ $ # . . ",
". . # @ @ @ @ @ @ @ @ @ @ @ @ @ @ @ @ @ @ @ @ @ @ @ $ $ $ $ $ $ $ $ $ $ $ $ $ $ $ $ $ $ $ $ $ $ $ # . . ",
". . # @ @ @ @ @ @ @ @ @ @ @ @ @ @ @ @ @ @ @ @ @ @ @ $ $ $ $ $ $ $ $ $ $ $ $ $ $ $ $ $ $ $ $ $ $ $ # . . ",
". . # @ @ @ @ @ @ @ @ @ @ @ @ @ @ @ @ @ @ @ @ @ @ @ $ $ $ $ $ $ $ $ $ $ $ $ $ $ $ $ $ $ $ $ $ $ $ # . . ",
". . # @ @ @ @ @ @ @ @ @ @ @ @ @ @ @ @ @ @ @ @ @ @ @ $ $ $ $ $ $ $ $ $ $ $ $ $ $ $ $ $ $ $ $ $ $ $ # . . ",
". . # @ @ @ @ @ @ @ @ @ @ @ @ @ @ @ @ @ @ @ @ @ @ @ $ $ $ $ $ $ $ $ $ $ $ $ $ $ $ $ $ $ $ $ $ $ $ # . . ",
". . # @ @ @ @ @ @ @ @ @ @ @ @ @ @ @ @ @ @ @ @ @ @ @ $ $ $ $ $ $ $ $ $ $ $ $ $ $ $ $ $ $ $ $ $ $ $ # . . ",
". . # @ @ @ @ @ @ @ @ @ @ @ @ @ @ @ @ @ @ @ @ @ @ @ $ $ $ $ $ $ $ $ $ $ $ $ $ $ $ $ $ $ $ $ $ $ $ # . . ",
". . # . . . . . . . . . . . . . . . . . . . . . . . . . . . . . . . . . . . . . . . . . . . . . C+# . . ",
". . # # G+. . . . . . . . . . . . . . . . . . . . . . . . . . . . . . . . . . . . . . . . . . F+# # . . ",
". . . # # # # # # # # # # # # # # # # # # # # # # # # # # # # # # # # # # # # # # # # # # # # # # . . . ",
". . . . . . . . . . . . . . . . . . . . . . . . . . . . . . . . . . . . . . . . . . . . . . . . . . . . ",
". . . . . . . . . . . . . . . . . . . . . . . . . . . . . . . . . . . . . . . . . . . . . . . . . . . . "};
