/* XPM */
static char * ET_xpm[] = {
"24 24 51 1",
" 	c None",
".	c #000000",
"+	c #6C6C6C",
"@	c #909090",
"#	c #303030",
"$	c #BFBFBF",
"%	c #404040",
"&	c #101010",
"*	c #FFBFBF",
"=	c #FF0000",
"-	c #FF3030",
";	c #9F7F7F",
">	c #FF8080",
",	c #706060",
"'	c #FF8F8F",
")	c #6D6D6D",
"!	c #EF6060",
"~	c #FF4040",
"{	c #DF8080",
"]	c #606060",
"^	c #FFDFDF",
"/	c #BF8080",
"(	c #484848",
"_	c #989898",
":	c #202020",
"<	c #747474",
"[	c #B8B8B8",
"}	c #A0A0A0",
"|	c #505050",
"1	c #C0C0C0",
"2	c #B0B0B0",
"3	c #FF1010",
"4	c #FF2020",
"5	c #787878",
"6	c #FF6060",
"7	c #585858",
"8	c #EFEFEF",
"9	c #FFCFCF",
"0	c #FFEFEF",
"a	c #9F9F9F",
"b	c #7F7F7F",
"c	c #808080",
"d	c #A8A8A8",
"e	c #FFFFFF",
"f	c #707070",
"g	c #CFCFCF",
"h	c #9C9C9C",
"i	c #686868",
"j	c #242424",
"k	c #181818",
"l	c #333333",
"                        ",
"  ....................  ",
" .+@@@@@@#$$$$#@@@@@@+. ",
" %%%%%%%&*=--=*&%%%%%%% ",
";>>>>>>>;*=**=*;>>>>>>>;",
",*****'=--=**=--='*****,",
" )!~~~~~~~{]]{~~~~~~~!) ",
" .]^>>>>>>/{{/>>>>>>^]. ",
" .+,*****=>~~>=*****,(. ",
" .@_:::&$=>~~>=$&:::<@. ",
" .@[}}}|$=>~~>=$%_}}[@. ",
" .@1111]$=>~~>=$%2111@. ",
" .@1111]$===34=$%2111@. ",
" .@115]#$=~4~>6]:7511@. ",
" .@11#$$8*^~9^0$$$#11@. ",
" .@11#$.........:a(11@. ",
" .@11#$.]bbbb%.bc|d11@. ",
" .@11#$.$ea%fc.g|h111@. ",
" .@11#$.#fc@%c.$]1111@. ",
" .@11#$.$e$i%c.$]1111@. ",
" .@11#$.#%%a%c.$]1111@. ",
" .+@@jg%%%c##cak5@@@@+. ",
"  ....cccc%..%l.......  ",
"                        "};
