/* XPM */
static char * songbird_xpm[] = {
"24 24 333 2",
"  	c None",
". 	c #779C9D",
"+ 	c #6E9294",
"@ 	c #89B3B4",
"# 	c #A0D0D0",
"$ 	c #A9D4D4",
"% 	c #98C3C4",
"& 	c #98C9C9",
"* 	c #78A9A9",
"= 	c #789B9C",
"- 	c #9ACACA",
"; 	c #ACD6D6",
"> 	c #B8DCDC",
", 	c #BFDFDF",
"' 	c #A3C5C6",
") 	c #B1D6D6",
"! 	c #99C7C7",
"~ 	c #74AEAE",
"{ 	c #4E7C7D",
"] 	c #77999A",
"^ 	c #9DCDCD",
"/ 	c #AFD7D7",
"( 	c #BCDEDE",
"_ 	c #C6E3E3",
": 	c #C9E3E3",
"< 	c #B1CDCD",
"[ 	c #ADCCCC",
"} 	c #A6CBCB",
"| 	c #8CBCBD",
"1 	c #528F90",
"2 	c #396A6C",
"3 	c #99CACA",
"4 	c #ADD6D6",
"5 	c #BBDDDD",
"6 	c #C7E0E0",
"7 	c #B6CFCF",
"8 	c #CFE5E5",
"9 	c #CCE4E4",
"0 	c #97B9BA",
"a 	c #79A4A6",
"b 	c #6A9FA0",
"c 	c #4A8F90",
"d 	c #356263",
"e 	c #8AB7B8",
"f 	c #A7D3D3",
"g 	c #ADD3D3",
"h 	c #A4C6C7",
"i 	c #C2DEDE",
"j 	c #C4DDDD",
"k 	c #C2D9DA",
"l 	c #D7EBEB",
"m 	c #A9C7C7",
"n 	c #A8CCCC",
"o 	c #8BBABA",
"p 	c #65A1A1",
"q 	c #327879",
"r 	c #709495",
"s 	c #9BCDCD",
"t 	c #ABD4D5",
"u 	c #B2D6D7",
"v 	c #BEDDDE",
"w 	c #99BABB",
"x 	c #B7D2D3",
"y 	c #D1E7E7",
"z 	c #D3E8E8",
"A 	c #CDE4E4",
"B 	c #ADCBCB",
"C 	c #AACDCD",
"D 	c #93BEBE",
"E 	c #73A9AA",
"F 	c #468C8D",
"G 	c #2C6566",
"H 	c #72ADB0",
"I 	c #9ECECE",
"J 	c #B5D9D9",
"K 	c #BEDDDD",
"L 	c #B1CFD0",
"M 	c #A7C4C5",
"N 	c #C8E2E3",
"O 	c #CDE5E5",
"P 	c #CAE2E2",
"Q 	c #A9C8C8",
"R 	c #ACCFCF",
"S 	c #96C0C0",
"T 	c #7AAEAE",
"U 	c #549596",
"V 	c #277172",
"W 	c #8EC5C6",
"X 	c #91C8CB",
"Y 	c #A8D2D3",
"Z 	c #B8DADA",
"` 	c #B4D4D4",
" .	c #BBD8D9",
"..	c #C4DFE0",
"+.	c #C6E0E0",
"@.	c #C3DEDE",
"#.	c #A6C6C6",
"$.	c #96C0C1",
"%.	c #7CAFB0",
"&.	c #5B9A9B",
"*.	c #2F7D7E",
"=.	c #3C6465",
"-.	c #6E9C9D",
";.	c #7EBEC1",
">.	c #6FB8C1",
",.	c #A4CFCF",
"'.	c #ACD3D3",
").	c #B2D5D6",
"!.	c #B7D7D8",
"~.	c #BCDADB",
"{.	c #B4D2D3",
"].	c #AFCDCE",
"^.	c #ABCACB",
"/.	c #92B5B7",
"(.	c #A5CACA",
"_.	c #92BEBE",
":.	c #7AAEAF",
"<.	c #5E9C9C",
"[.	c #398484",
"}.	c #206365",
"|.	c #74A4A5",
"1.	c #88C1C2",
"2.	c #8BC3C5",
"3.	c #9ECBCB",
"4.	c #A5CECE",
"5.	c #AAD0D0",
"6.	c #AFD2D3",
"7.	c #B3D4D5",
"8.	c #ABCCCD",
"9.	c #A5C6C7",
"0.	c #9ABDBE",
"a.	c #98BCBD",
"b.	c #94BEBF",
"c.	c #8EBBBB",
"d.	c #77ACAC",
"e.	c #5C9A9B",
"f.	c #3C8686",
"g.	c #216768",
"h.	c #77AFB0",
"i.	c #87BFBF",
"j.	c #8EC2C2",
"k.	c #95C5C5",
"l.	c #9CC8C8",
"m.	c #A0CACA",
"n.	c #A5CCCC",
"o.	c #A9CECE",
"p.	c #AACECE",
"q.	c #ABCECF",
"r.	c #A8CBCC",
"s.	c #9CC2C3",
"t.	c #85AFB1",
"u.	c #85B4B5",
"v.	c #6BA5A7",
"w.	c #599899",
"x.	c #3C8586",
"y.	c #19686B",
"z.	c #707473",
"A.	c #5BA7AD",
"B.	c #7EB9B9",
"C.	c #85BCBC",
"D.	c #8CBEBE",
"E.	c #73B4B9",
"F.	c #84BBBF",
"G.	c #9BC6C6",
"H.	c #9FC8C8",
"I.	c #A1C8C8",
"J.	c #A2C8C8",
"K.	c #A0C7C8",
"L.	c #99C2C3",
"M.	c #87B4B5",
"N.	c #7CB0B0",
"O.	c #6AA4A4",
"P.	c #549595",
"Q.	c #34797D",
"R.	c #0C4B5A",
"S.	c #6FB0B0",
"T.	c #76B3B3",
"U.	c #7CB5B5",
"V.	c #81B8B8",
"W.	c #80B7B9",
"X.	c #89BBBC",
"Y.	c #91BFBF",
"Z.	c #94C0C0",
"`.	c #95C1C1",
" +	c #96C1C1",
".+	c #95C0C1",
"++	c #8EBBBC",
"@+	c #82B3B3",
"#+	c #6CA4A6",
"$+	c #609D9E",
"%+	c #4B8F90",
"&+	c #327A7D",
"*+	c #0D4F5C",
"=+	c #546566",
"-+	c #90978E",
";+	c #66A9A9",
">+	c #6BABAB",
",+	c #71AEAE",
"'+	c #76B0B0",
")+	c #7CB3B3",
"!+	c #81B5B5",
"~+	c #85B7B7",
"{+	c #79B1B4",
"]+	c #89B9B9",
"^+	c #8BB9BA",
"/+	c #8AB8B9",
"(+	c #83B4B5",
"_+	c #5E9B9E",
":+	c #569697",
"<+	c #42898A",
"[+	c #2D7C7C",
"}+	c #156C6C",
"|+	c #8D948D",
"1+	c #5A9C9C",
"2+	c #60A3A3",
"3+	c #65A6A6",
"4+	c #6BA9A9",
"5+	c #70ABAB",
"6+	c #75ADAD",
"7+	c #79AFAF",
"8+	c #7CB0B1",
"9+	c #7EB1B2",
"0+	c #7DB0B1",
"a+	c #6BA4A4",
"b+	c #46858E",
"c+	c #1F5C72",
"d+	c #367F82",
"e+	c #267777",
"f+	c #136969",
"g+	c #4D8B8B",
"h+	c #549C9C",
"i+	c #5A9E9E",
"j+	c #5FA1A1",
"k+	c #64A3A3",
"l+	c #69A5A5",
"m+	c #6DA7A7",
"n+	c #6FA8A9",
"o+	c #71A8A9",
"p+	c #6FA7A8",
"q+	c #70A8A8",
"r+	c #438994",
"s+	c #1F5D74",
"t+	c #114461",
"u+	c #2B757A",
"v+	c #1E7272",
"w+	c #186364",
"x+	c #427D7E",
"y+	c #428C8E",
"z+	c #42888D",
"A+	c #519797",
"B+	c #579A9A",
"C+	c #509296",
"D+	c #357989",
"E+	c #428490",
"F+	c #629E9F",
"G+	c #65A0A1",
"H+	c #639F9F",
"I+	c #5B9A9A",
"J+	c #529494",
"K+	c #2C6B79",
"L+	c #184E65",
"M+	c #267778",
"N+	c #166C6D",
"O+	c #1C5E60",
"P+	c #296E79",
"Q+	c #1A556C",
"R+	c #438D8E",
"S+	c #489090",
"T+	c #2A6B7C",
"U+	c #14556F",
"V+	c #155771",
"W+	c #387986",
"X+	c #569797",
"Y+	c #539495",
"Z+	c #4D9191",
"`+	c #448B8B",
" @	c #388384",
".@	c #2B7B7C",
"+@	c #1D7172",
"@@	c #0E6366",
"#@	c #153F55",
"$@	c #12415C",
"%@	c #338182",
"&@	c #3A8686",
"*@	c #357D82",
"=@	c #19536A",
"-@	c #154E68",
";@	c #367881",
">@	c #478D8D",
",@	c #438A8B",
"'@	c #3E8788",
")@	c #358182",
"!@	c #207374",
"~@	c #13696B",
"{@	c #145058",
"]@	c #0B394F",
"^@	c #1F6C71",
"/@	c #297B7B",
"(@	c #2E7D7D",
"_@	c #317F7F",
":@	c #337F80",
"<@	c #378282",
"[@	c #388383",
"}@	c #21596A",
"|@	c #174B60",
"1@	c #277878",
"2@	c #1E7273",
"3@	c #146C6D",
"4@	c #0D6364",
"5@	c #146667",
"6@	c #166E6E",
"7@	c #1C7171",
"8@	c #237576",
"9@	c #257777",
"0@	c #257576",
"a@	c #185B66",
"b@	c #1B696E",
"c@	c #186E6F",
"d@	c #0E5960",
"e@	c #0D5C60",
"f@	c #1D5E5F",
"g@	c #156264",
"h@	c #0D5C62",
"i@	c #11686A",
"j@	c #146B6C",
"k@	c #126A6B",
"l@	c #0E6768",
"m@	c #0E6364",
"n@	c #185459",
"o@	c #205A5C",
"p@	c #1C5B5D",
"q@	c #1C5459",
"r@	c #235B5C",
"                      . +                       ",
"                  @ # $ % & *                   ",
"              = - ; > , ' ) ! ~ {               ",
"            ] ^ / ( _ : < [ } | 1 2             ",
"            3 4 5 _ 6 7 8 9 0 a b c d           ",
"          e f g h i j k l 8 m n o p q           ",
"        r s t u v w x y z A B C D E F G         ",
"        H I t J K L M N O P Q R S T U V         ",
"        W X Y ) Z `  ...+.@.#.C $.%.&.*.=.      ",
"      -.;.>.,.'.).!.~.{.].^./.(._.:.<.[.}.      ",
"      |.1.2.3.4.5.6.7.8.9.0.a.b.c.d.e.f.g.      ",
"      h.i.j.k.l.m.n.o.p.q.r.s.t.u.v.w.x.y.z.    ",
"      A.B.C.D.E.F.G.H.I.J.K.L.M.N.O.P.Q.R.      ",
"      S.T.U.V.W.X.Y.Z.`. +.+++@+#+$+%+&+*+=+-+  ",
"      ;+>+,+'+)+!+~+{+]+^+/+(+d._+:+<+[+}+  |+  ",
"      1+2+3+4+5+6+7+8+9+8+0+d.a+b+c+d+e+f+      ",
"      g+h+i+j+k+l+m+n+o+p+q+r+<.s+t+u+v+w+      ",
"      x+y+z+A+B+C+D+E+F+G+H+I+J+K+L+M+N+O+      ",
"        P+Q+R+S+T+U+V+W+X+Y+Z+`+ @.@+@@@        ",
"        #@$@%@&@*@=@-@;@>@,@'@)@.@!@~@{@        ",
"          ]@^@/@(@_@:@<@[@}@|@1@2@3@4@          ",
"            5@6@7@!@8@9@0@a@b@c@d@e@            ",
"              f@g@h@i@j@j@k@l@m@n@              ",
"                    o@p@q@r@                    "};
